<svg width="12" height="12" viewBox="0 0 12 12" fill="none" xmlns="http://www.w3.org/2000/svg">
<path d="M6.63005 1.79999L2.52505 6.14499C2.37005 6.30999 2.22005 6.63499 2.19005 6.85999L2.00505 8.47999C1.94005 9.06499 2.36005 9.46499 2.94005 9.36499L4.55005 9.08999C4.77505 9.04999 5.09005 8.88499 5.24505 8.71499L9.35005 4.36999C10.06 3.61999 10.38 2.76499 9.27505 1.71999C8.17505 0.684986 7.34005 1.04999 6.63005 1.79999Z" fill="white" stroke="#009ECA" stroke-miterlimit="10" stroke-linecap="round" stroke-linejoin="round"/>
<path d="M5.94495 2.52502C6.15995 3.90502 7.27995 4.96002 8.66995 5.10002L5.94495 2.52502Z" fill="white"/>
<path d="M5.94495 2.52502C6.15995 3.90502 7.27995 4.96002 8.66995 5.10002" stroke="#009ECA" stroke-miterlimit="10" stroke-linecap="round" stroke-linejoin="round"/>
<path d="M1.5 11H10.5" stroke="#009ECA" stroke-miterlimit="10" stroke-linecap="round" stroke-linejoin="round"/>
</svg>
